# xmcd
#
# Track frame offsets:
#	150
#	16763
#	32528
#	46913
#	59254
#	76945
#	93974
#	112101
#	130296
#	146465
#	165048
#	179814
#	196921
#	213176
#	229557
#	243150
#	260780
#	276918
#	292029
#	306493
#	320067
#	331548
#	339751
#
# Disc length: 4675 seconds
#
# Revision: 1
# Processed by: cddbd v1.5.2PL0 Copyright (c) Steve Scherf et al.
# Submitted via: EasyCDDAExtractor 11.5.0.1
#
DISCID=3f124117
DTITLE=Various Artist - NCT 115
DYEAR=2008
DGENRE=Country
TTITLE0=Darius Rucker - It Won't Be Like This For Long
TTITLE1=Adam Gregory - What It Takes
TTITLE2=Mark Wills - The Things We Forget
TTITLE3=The Lost Trailers - How Bout You Don't
TTITLE4=Tracy Lawrence - You Can't Hide Redneck
TTITLE5=Jack Ingram - That's A Man
TTITLE6=LeAnn Rimes - What I Can Not Change ("Change" Mix)
TTITLE7=Jewel - Till It Feels Like Cheating
TTITLE8=The Road Hammers - I've Got The Scars To Prove It
TTITLE9=Dean Brody - Brothers
TTITLE10=Sarah Buxton - Space
TTITLE11=John Michael Montgomery - Forever
TTITLE12=Crystal Shawanda - My Roots Are Showing
TTITLE13=James Otto - These Are The Good Ole Days
TTITLE14=Joey and Rory - Cheater Cheater
TTITLE15=Jamie O'Neal - Like A Woman
TTITLE16=Point Of Grace - I Wish
TTITLE17=Jimmy Wayne - I Will
TTITLE18=Pat Garrett - Moose Shootin' Mama
TTITLE19=Rascal Flatts - Jingle Bell Rock
TTITLE20=Elvis Presley with Martina McBride - Blue Christmas
TTITLE21=George Strait - We Wish You A Merry Christmas
TTITLE22=Toby Keith - Rockin' Around The Christmas Tree
EXTD=
EXTT0=
EXTT1=
EXTT2=
EXTT3=
EXTT4=
EXTT5=
EXTT6=
EXTT7=
EXTT8=
EXTT9=
EXTT10=
EXTT11=
EXTT12=
EXTT13=
EXTT14=
EXTT15=
EXTT16=
EXTT17=
EXTT18=
EXTT19=
EXTT20=
EXTT21=
EXTT22=
PLAYORDER=
